<?xml version="1.0" encoding="UTF-8"?>
<!-- Created with Inkscape (http://www.inkscape.org/) -->
<svg version="1.1" viewBox="0 0 1369.6 305.78" xmlns="http://www.w3.org/2000/svg" xmlns:xlink="http://www.w3.org/1999/xlink">
 <g transform="translate(-202.64)">
  <text transform="translate(-1195.5 109.37)" x="1733.9922" y="126.75249" fill="#000000" font-family="sans-serif" font-size="224.9px" stroke-width=".26458" style="line-height:1.25" xml:space="preserve"><tspan x="1733.9922" y="126.75249" font-family="Roboto" font-size="224.9px" font-weight="500" stroke-width=".26458"><tspan fill="#ffffff">euca</tspan><tspan fill="#8bc13a">stack</tspan></tspan></text>
  <path d="m350.12 0.006598c-1.1405-0.049728-2.3946 0.18083-3.7109 0.72605l-134.24 55.603c-5.2651 2.1809-9.5333 8.5685-9.5333 14.267v169.86c0 3.0524 1.2478 5.2493 3.1941 6.3324v0.0176l0.26871 0.11111c0.30348 0.14799 0.60481 0.29502 0.93845 0.3886l30.73 12.729v-23.812l108.64-44.999c5.2651-2.1809 9.5332-8.5685 9.5332-14.267v-153.72l28.744 11.906v-21.167l-31.819-13.18c-0.8029-0.47003-1.7259-0.75127-2.7476-0.79582z" fill="#8bc13a"/>
  <path d="m234.57 253.69v-169.86c0-5.6989 4.2682-12.087 9.5333-14.268l134.24-55.602c5.2651-2.1809 9.5333 0.67105 9.5333 6.3699v169.86c0 5.6989-4.2682 12.087-9.5333 14.268l-134.24 55.602c-5.2651 2.1809-9.5333-0.67105-9.5333-6.3699z" fill="#fff"/>
  <path d="m404.41 22.496c-1.1405-0.04973-2.3946 0.18084-3.7109 0.72605l-134.24 55.603c-5.2651 2.1809-9.5333 8.5685-9.5333 14.267v169.86c0 3.0521 1.2476 5.2492 3.1936 6.3324v0.0176l0.2739 0.11368c0.30154 0.14671 0.60095 0.29299 0.93223 0.38603l30.732 12.729v-23.812l108.64-44.999c5.2651-2.1809 9.5333-8.5685 9.5333-14.267v-148.43l28.744 11.906v-26.458l-31.819-13.18c-0.80293-0.47003-1.7264-0.75127-2.7481-0.79582z" fill="#8bc13a"/>
  <path d="m288.87 276.18v-169.86c0-5.6989 4.2682-12.087 9.5333-14.268l134.24-55.602c5.2651-2.1809 9.5333 0.67105 9.5333 6.3699v169.86c0 5.6989-4.2682 12.087-9.5333 14.268l-134.24 55.602c-5.2651 2.1809-9.5333-0.67105-9.5333-6.3699z" fill="#fff"/>
  <path d="m458.71 44.986c-1.1405-0.04973-2.3946 0.18084-3.7109 0.72605l-134.24 55.603c-5.2651 2.1809-9.5333 8.5685-9.5333 14.267v169.86c3e-5 3.0524 1.2479 5.2493 3.1941 6.3324v0.0176l0.26871 0.1111c0.30348 0.14799 0.60481 0.29503 0.93845 0.38861l30.73 12.729v-23.812l108.64-44.999c5.2651-2.1809 9.5333-8.5685 9.5333-14.267v-148.43l28.744 11.906v-26.458l-31.817-13.179c-0.80328-0.47054-1.7274-0.75176-2.7497-0.79633z" fill="#8bc13a"/>
  <path d="m343.16 298.67v-169.86c0-5.6989 4.2682-12.087 9.5333-14.268l134.24-55.602c5.2651-2.1809 9.5333 0.67105 9.5333 6.3699v169.86c0 5.6989-4.2682 12.087-9.5333 14.268l-134.24 55.602c-5.2651 2.1809-9.5333-0.67105-9.5333-6.3699z" fill="#fff"/>
  <path d="m375.05 122.48 89.523-37.082c5.2651-2.1809 9.5333 0.67105 9.5333 6.3699v135.47c0 5.6989-4.2682 12.087-9.5333 14.268l-89.523 37.082c-5.2651 2.1809-9.5333-0.67104-9.5333-6.3699v-135.47c0-5.6989 4.2682-12.087 9.5333-14.268z" fill="#003556"/>
  <path d="m451.75 223-63.876 26.458-1e-4 -46.302 49.504-20.505v-15.875l-49.504 20.505 1e-4 -46.302 63.876-26.458z" fill="#8bc13a"/>
 </g>
</svg>
