<?xml version="1.0" encoding="UTF-8"?>
<!-- Created with Inkscape (http://www.inkscape.org/) -->
<svg version="1.1" viewBox="0 0 1388.9 333.38" xmlns="http://www.w3.org/2000/svg" xmlns:xlink="http://www.w3.org/1999/xlink">
 <g transform="translate(-136.21 41.582)">
  <path transform="matrix(.26458 0 0 .26458 136.21 -41.582)" d="m1580.4 487.23c-38.46 0-73.324 9.8216-104.59 29.467s-55.615 47.177-73.047 82.594c-17.155 35.14-25.732 75.123-25.732 119.95v12.451c0 66.96 19.782 120.64 59.35 161.04 39.844 40.12 91.724 60.18 155.64 60.18 37.354 0 70.971-7.3314 100.85-21.996 30.16-14.941 54.232-35.833 72.217-62.672l-54.369-51.879c-29.053 37.354-66.683 56.029-112.89 56.029-32.926 0-60.319-10.791-82.178-32.373-21.582-21.582-33.896-50.911-36.939-87.988h293.43v-40.674c0-71.387-16.741-126.59-50.221-165.6-33.203-39.014-80.378-58.52-141.53-58.52zm927.61 0c-63.086 0-112.89 20.613-149.41 61.84-36.523 40.951-54.785 95.598-54.785 163.94v10.377c0 71.663 18.399 127.83 55.199 168.51 36.8 40.674 86.605 61.01 149.41 61.01 32.373 0 62.532-7.0547 90.478-21.166 27.946-14.111 50.081-33.203 66.406-57.275 16.325-24.349 25.042-50.497 26.148-78.443h-95.045c-1.1067 21.582-9.9609 39.706-26.562 54.371-16.602 14.665-37.491 21.996-62.67 21.996-33.203 0-58.659-11.898-76.367-35.693-17.432-24.072-26.148-60.456-26.148-109.15v-16.188c0.2767-48.145 9.2702-83.975 26.978-107.49 17.708-23.796 42.887-35.695 75.537-35.695 25.456 0 46.345 8.3008 62.67 24.902 16.602 16.602 25.456 37.77 26.562 63.502h95.045c-1.6602-50.635-19.368-91.448-53.125-122.44-33.48-31.266-76.921-46.898-130.32-46.898zm439.94 0c-34.587 0-65.992 6.0872-94.215 18.262-27.946 12.174-50.081 29.053-66.406 50.635-16.325 21.305-24.486 44.271-24.486 68.896h100.85c0-17.708 7.3333-32.236 21.998-43.58 14.665-11.621 33.48-17.432 56.445-17.432 26.562 0 46.345 7.0566 59.35 21.168 13.004 13.835 19.508 32.373 19.508 55.615v29.469h-61.842c-66.13 0-117.04 12.865-152.73 38.598-35.417 25.456-53.125 62.118-53.125 109.99 0 37.907 14.251 69.727 42.75 95.459 28.499 25.732 65.3 38.598 110.4 38.598 46.484 0 85.775-16.739 117.87-50.219 3.3203 19.369 7.194 33.34 11.621 41.918h102.93v-7.0547c-11.344-24.072-17.018-56.308-17.018-96.705v-202.54c-0.8301-47.868-16.878-84.945-48.144-111.23-31.266-26.563-73.184-39.844-125.76-39.844zm-1099.9 8.3008v290.94c0 53.955 12.451 95.182 37.354 123.68 25.179 28.499 62.118 42.748 110.82 42.748 54.508 0 96.566-17.432 126.17-52.295l2.4903 43.994h95.045v-449.07h-100.86v322.49c-17.155 35.14-50.219 52.709-99.193 52.709-47.314 0-70.973-28.499-70.973-85.498v-289.7h-100.86zm-268.12 72.631c27.946 0 49.805 8.7168 65.576 26.148 15.772 17.155 24.765 42.611 26.978 76.367v7.4707h-192.16c4.7038-34.587 15.495-61.563 32.373-80.932 17.155-19.369 39.567-29.055 67.236-29.055zm1386.6 165.6h54.371v84.668c-8.8542 16.325-22.135 29.329-39.844 39.014-17.432 9.6842-36.109 14.527-56.031 14.527-21.582 0-38.874-5.6732-51.879-17.018-12.728-11.621-19.092-27.116-19.092-46.484 0-23.796 9.4075-42.195 28.223-55.199 18.815-13.005 46.898-19.508 84.252-19.508z" fill="#fff"/>
  <path transform="matrix(.26458 0 0 .26458 136.21 -41.582)" d="m4853.8 307.1v637.5h100.85v-146.51l44.824-46.07 133.23 192.58h116.62l-184.69-261.89 166.85-187.18h-121.19l-124.1 139.87-31.543 39.43v-367.72h-100.85zm-1162.1 79.271v109.16h-73.877v74.707h73.877v254.42c0 85.498 38.737 128.25 116.21 128.25 21.306 0 43.441-3.181 66.406-9.5449v-78.027c-11.898 2.7669-23.656 4.1504-35.277 4.1504-17.432 0-29.606-3.7364-36.523-11.207-6.6406-7.7474-9.9609-20.199-9.9609-37.354v-250.68h79.272v-74.707h-79.272v-109.16h-100.86zm-296.34 100.86c-50.358 0-91.862 13.005-124.51 39.014-32.65 26.009-48.975 58.382-48.975 97.119 0 46.208 25.179 81.487 75.537 105.84 22.966 11.068 51.602 20.199 85.912 27.393 34.31 7.194 58.798 15.495 73.463 24.902 14.942 9.4076 22.412 23.103 22.412 41.088 0 16.325-6.9174 29.606-20.752 39.844-13.834 9.9609-34.033 14.941-60.596 14.941-27.393 0-49.389-6.3639-65.99-19.092-16.602-13.005-25.595-31.404-26.978-55.199h-97.949c0 26.839 8.024 51.879 24.072 75.121 16.048 23.242 38.46 41.504 67.236 54.785 28.776 13.281 61.563 19.922 98.363 19.922 54.232 0 98.088-12.451 131.57-37.354 33.48-25.179 50.221-57.966 50.221-98.363 0-24.072-5.5338-44.548-16.602-61.426-10.791-16.878-27.532-31.266-50.221-43.164-22.412-12.174-53.402-22.551-92.969-31.129-39.567-8.8542-65.853-17.569-78.857-26.146-13.005-8.5775-19.508-20.615-19.508-36.109 0-17.155 6.919-30.852 20.754-41.09 14.111-10.238 32.234-15.355 54.369-15.355 23.796 0 42.888 6.5013 57.275 19.506 14.388 12.728 21.582 28.776 21.582 48.145h100.86c0-42.334-16.602-76.781-49.805-103.34-32.926-26.563-76.23-39.844-129.91-39.844zm733.79 0c-34.587 0-65.99 6.0872-94.213 18.262-27.946 12.174-50.082 29.053-66.406 50.635-16.325 21.305-24.488 44.271-24.488 68.896h100.86c0-17.708 7.3315-32.236 21.996-43.58 14.665-11.621 33.48-17.432 56.445-17.432 26.562 0 46.347 7.0566 59.352 21.168 13.005 13.835 19.506 32.373 19.506 55.615v29.469h-61.84c-66.13 0-117.04 12.865-152.73 38.598-35.417 25.456-53.125 62.118-53.125 109.99 0 37.907 14.249 69.727 42.748 95.459 28.499 25.732 65.3 38.598 110.4 38.598 46.484 0 85.775-16.739 117.87-50.219 3.3202 19.369 7.194 33.34 11.621 41.918h102.93v-7.0547c-11.344-24.072-17.016-56.308-17.016-96.705v-202.54c-0.83-47.868-16.878-84.945-48.144-111.23-31.266-26.563-73.186-39.844-125.76-39.844zm464.84 0c-63.086 0-112.89 20.613-149.41 61.84-36.524 40.951-54.785 95.598-54.785 163.94v10.377c0 71.663 18.401 127.83 55.201 168.51 36.8 40.674 86.605 61.01 149.41 61.01 32.373 0 62.533-7.0547 90.479-21.166 27.946-14.111 50.081-33.203 66.406-57.275 16.325-24.349 25.042-50.497 26.148-78.443h-95.045c-1.1069 21.582-9.961 39.706-26.562 54.371-16.602 14.665-37.491 21.996-62.67 21.996-33.203 0-58.659-11.898-76.367-35.693-17.432-24.072-26.148-60.456-26.148-109.15v-16.188c0.2766-48.145 9.2682-83.975 26.976-107.49 17.708-23.796 42.889-35.695 75.539-35.695 25.456 0 46.345 8.3008 62.67 24.902 16.602 16.602 25.456 37.77 26.562 63.502h95.045c-1.6602-50.635-19.37-91.448-53.127-122.44-33.48-31.266-76.921-46.898-130.32-46.898zm-446.17 246.53h54.369v84.668c-8.8541 16.325-22.135 29.329-39.844 39.014-17.432 9.6842-36.107 14.527-56.029 14.527-21.582 0-38.876-5.6732-51.881-17.018-12.728-11.621-19.092-27.116-19.092-46.484 0-23.796 9.4077-42.195 28.223-55.199 18.815-13.005 46.9-19.508 84.254-19.508z" fill="#8bc13a"/>
 </g>
 <g transform="translate(9.5814 7.9375)">
  <path transform="scale(.26458)" d="m560.34-22.102-558.42 231.31c-21.06 8.7235-38.133 34.275-38.133 57.07v688.09c0 11.398 8.5364 24.173 19.067 28.535l577.49 239.2c10.53 4.3617 27.603 4.3617 38.133 0l558.42-231.31c21.06-8.7235 38.133-34.275 38.133-57.07v-688.09c0-11.398-8.5364-24.173-19.067-28.535l-577.49-239.2c-10.53-4.3617-27.603-4.3617-38.133 0z" fill="#fff"/>
 </g>
 <g transform="translate(-1331.7 150.96)">
  <g transform="translate(-.13227 -.14313)">
   <path transform="scale(.26458)" d="m5651.4-517.82c-4.3107-0.18795-9.0505 0.68347-14.025 2.7441l-507.35 210.15c-19.9 8.2427-36.031 32.385-36.031 53.924v642c0 11.537 4.7163 19.84 12.072 23.934v0.06641l1.0156 0.41992c1.147 0.55934 2.2859 1.1151 3.5469 1.4688l116.15 48.111v-90l410.6-170.08c19.9-8.2427 36.031-32.385 36.031-53.924v-581l108.64 45v-80l-120.26-49.812c-3.0346-1.7765-6.523-2.8394-10.385-3.0078z" fill="#8bc13a"/>
   <path d="m1379.7 116.68v-169.86c0-5.6989 4.2682-12.087 9.5333-14.268l134.24-55.602c5.2651-2.1809 9.5333 0.67105 9.5333 6.3699v169.86c0 5.6989-4.2682 12.087-9.5333 14.268l-134.24 55.602c-5.2651 2.1809-9.5333-0.67105-9.5333-6.3699z" fill="#003556"/>
   <path transform="scale(.26458)" d="m5856.6-432.82c-4.3107-0.18795-9.0505 0.68347-14.025 2.7441l-507.35 210.15c-19.9 8.2427-36.031 32.385-36.031 53.924v642c0 11.536 4.7155 19.84 12.07 23.934v0.06641l1.0352 0.42969c1.1397 0.55448 2.2713 1.1073 3.5234 1.459l116.15 48.111v-90l410.6-170.08c19.9-8.2427 36.031-32.385 36.031-53.924v-561l108.64 45v-100l-120.26-49.812c-3.0347-1.7765-6.525-2.8394-10.387-3.0078z" fill="#8bc13a"/>
   <path d="m1434 139.17v-169.86c0-5.6989 4.2682-12.087 9.5333-14.268l134.24-55.602c5.2651-2.1809 9.5333 0.67105 9.5333 6.3699v169.86c0 5.6989-4.2682 12.087-9.5333 14.268l-134.24 55.602c-5.2651 2.1809-9.5333-0.67105-9.5333-6.3699z" fill="#003556"/>
   <path transform="scale(.26458)" d="m6061.8-347.82c-4.3107-0.18795-9.0505 0.68347-14.025 2.7441l-507.35 210.15c-19.9 8.2427-36.031 32.385-36.031 53.924v642c1e-4 11.537 4.7163 19.84 12.072 23.934v0.06641l1.0156 0.41992c1.147 0.55934 2.2859 1.1151 3.5469 1.4688l116.15 48.111v-90l410.6-170.08c19.9-8.2427 36.031-32.385 36.031-53.924v-561l108.64 45v-100l-120.25-49.811c-3.036-1.7784-6.5287-2.8413-10.393-3.0098z" fill="#8bc13a"/>
   <path d="m1488.3 161.66v-169.86c0-5.6989 4.2682-12.087 9.5333-14.268l134.24-55.602c5.2651-2.1809 9.5333 0.67105 9.5333 6.3699v169.86c0 5.6989-4.2682 12.087-9.5333 14.268l-134.24 55.602c-5.2651 2.1809-9.5333-0.67105-9.5333-6.3699z" fill="#003556"/>
   <path d="m1520.2-14.532 89.523-37.082c5.2651-2.1809 9.5333 0.67105 9.5333 6.3699v135.47c0 5.6989-4.2682 12.087-9.5333 14.268l-89.523 37.082c-5.2651 2.1809-9.5333-0.67104-9.5333-6.3699v-135.47c0-5.6989 4.2682-12.087 9.5333-14.268z" fill="#fff"/>
   <path d="m1596.9 85.99-63.876 26.458-1e-4 -46.302 49.504-20.505v-15.875l-49.504 20.505 1e-4 -46.302 63.876-26.458z" fill="#8bc13a"/>
  </g>
 </g>
</svg>
